PathFileType	4	(X/Y/Z)	s01c0102.trc
DataRate	CameraRate	NumFrames	NumMarkers	Units	OrigDataRate	OrigDataStartFrame	OrigNumFrames
200	200	6	48	mm	200	750	2000
Frame#	Time	racr			lacr			c7			jug			rlel			rdr			llel			ldr			s2			lic			ric			lasi			rasi			rpsi			lpsi			rgt			lgt			rth1			rth2			rth3			rth4			rlfc			rsh1			rsh2			rsh3			rsh4			rlmal			rmmal			rcal			rtoe			rmt5			lth1			lth2			lth4			lth3			llfc			lsh1			lsh2			lsh3			lsh4			llmal			lmmal			lcal			ltoe			lmt5			SBIKE			LBIKE			RBIKE			
		X1	Y1	Z1	X2	Y2	Z2	X3	Y3	Z3	X4	Y4	Z4	X5	Y5	Z5	X6	Y6	Z6	X7	Y7	Z7	X8	Y8	Z8	X9	Y9	Z9	X10	Y10	Z10	X11	Y11	Z11	X12	Y12	Z12	X13	Y13	Z13	X14	Y14	Z14	X15	Y15	Z15	X16	Y16	Z16	X17	Y17	Z17	X18	Y18	Z18	X19	Y19	Z19	X20	Y20	Z20	X21	Y21	Z21	X22	Y22	Z22	X23	Y23	Z23	X24	Y24	Z24	X25	Y25	Z25	X26	Y26	Z26	X27	Y27	Z27	X28	Y28	Z28	X29	Y29	Z29	X30	Y30	Z30	X31	Y31	Z31	X32	Y32	Z32	X33	Y33	Z33	X34	Y34	Z34	X35	Y35	Z35	X36	Y36	Z36	X37	Y37	Z37	X38	Y38	Z38	X39	Y39	Z39	X40	Y40	Z40	X41	Y41	Z41	X42	Y42	Z42	X43	Y43	Z43	X44	Y44	Z44	X45	Y45	Z45	X46	Y46	Z46	X47	Y47	Z47	X48	Y48	Z48	
750	3.7500	513.790344	1326.363037	-109.110733	508.691467	1309.646362	-410.551117	468.907318	1394.261719	-252.449280	458.840576	1231.637817	-253.440033	583.330322	1068.487183	-4.921082	740.537415	857.545105	-57.534355	518.883484	1042.417480	-528.572754	717.055054	891.937561	-432.490112	-59.634937	1176.160278	-207.220810	92.102921	1216.041260	-397.134491	112.871559	1172.582886	-71.059547	99.186646	1157.956055	-376.025909	135.280823	1127.984497	-97.318169	-25.763340	1211.171509	-154.591232	-40.839592	1225.402588	-257.685150	53.050598	1048.857666	-45.920364	53.798012	1099.699341	-428.425842	120.810783	939.096863	-26.621737	168.132446	871.841797	-31.784193	214.856384	794.959351	-39.824215	215.427795	901.314148	-39.207165	249.619095	686.399658	-66.555008	210.111008	577.786682	-37.245941	196.119354	494.348175	-43.302349	173.687866	408.976501	-55.646549	245.920410	486.003967	-76.380859	140.666656	295.784485	-79.003220	0.000000	0.000000	-0.000000	96.973404	301.906433	-132.905762	303.217957	124.899796	-137.565674	204.788986	158.558777	-61.766357	158.527374	1036.919067	-432.868835	247.473953	1035.220215	-435.608795	250.588181	1087.465210	-418.785370	331.867462	1022.815796	-424.514740	426.775024	978.862061	-413.159882	363.573700	896.988159	-427.415741	321.207245	820.313843	-428.852234	277.735199	746.461975	-417.373901	371.386383	793.151855	-405.251984	0.000000	0.000000	-0.000000	234.860168	614.428650	-322.537476	147.532303	594.708496	-361.462921	403.114838	491.217773	-369.071167	297.009796	505.854675	-435.310516	-223.772125	893.727905	-248.304718	-12.490546	85.328239	-454.321838	-20.779881	80.727676	-54.079994	
751	3.7550	514.246155	1325.846680	-110.247528	508.207855	1310.167603	-411.470398	468.938507	1394.281494	-253.176056	458.547638	1231.739380	-254.668549	583.370667	1068.535889	-5.451871	740.413269	857.170288	-56.813393	518.872864	1042.393311	-529.079407	716.913452	892.723694	-432.762787	-59.828442	1178.132812	-207.206024	90.796066	1218.051270	-397.119995	112.707962	1173.661621	-71.212151	98.660507	1160.046021	-376.186615	134.913940	1128.805786	-97.740891	-25.872765	1212.997559	-154.491302	-40.934597	1227.349487	-257.484192	52.902554	1050.494751	-46.093021	52.686817	1101.818970	-428.016907	121.993919	940.836975	-28.109865	170.306412	874.274109	-33.445404	218.114029	798.080994	-41.947254	217.083618	904.367737	-40.600101	252.587540	689.535645	-67.968155	211.074646	581.451660	-38.747280	195.371597	498.388000	-44.816135	171.209442	413.380554	-57.149944	244.688782	488.984985	-78.067329	135.155609	301.241547	-79.903992	171.559296	303.681885	-157.164368	91.587486	308.154510	-134.435303	292.803894	125.314415	-137.663147	195.461243	162.525314	-62.235298	157.313354	1037.169800	-432.456909	246.231918	1034.110840	-434.378296	249.865204	1086.522705	-418.014984	330.573608	1021.098816	-424.375122	425.264313	976.533936	-411.864227	363.629761	892.188721	-426.237762	321.992950	815.026428	-428.204834	279.455200	740.626892	-417.241394	372.464569	788.541077	-404.520660	0.000000	0.000000	-0.000000	239.135178	608.090759	-322.510010	152.126755	584.938904	-362.132568	411.903992	492.242615	-369.167877	305.440582	501.772461	-435.833191	-223.751160	893.752197	-248.255508	-12.484962	85.330544	-454.350250	-20.738939	80.746742	-54.075809	
752	3.7600	514.737305	1325.023193	-111.644531	507.781677	1310.678711	-412.293640	468.894104	1394.294189	-253.858597	458.279816	1231.757812	-255.820679	583.311707	1068.345825	-5.770343	740.762817	857.180542	-57.152649	519.159241	1042.442383	-529.514709	716.890564	893.458923	-432.868073	-59.934029	1180.059204	-207.315216	89.754135	1219.829590	-397.137390	112.540764	1174.669067	-71.498421	98.434814	1161.865234	-376.358307	134.578537	1129.794067	-98.169632	-26.025282	1214.711914	-154.472488	-40.986752	1229.088867	-257.380890	52.787701	1052.147461	-46.220440	51.603233	1103.528442	-427.458832	123.363869	942.577515	-29.695831	172.775436	876.619263	-35.199581	221.786926	801.377991	-44.154697	218.896484	907.432556	-42.305828	255.948044	692.785522	-69.516464	212.363800	585.294617	-40.297707	194.812195	502.641205	-46.418030	168.721390	418.225220	-58.600414	243.750336	492.161194	-79.963120	129.598358	306.989624	-80.755035	166.201233	308.128540	-157.952774	86.115105	314.734650	-135.964600	282.543549	126.690567	-137.692673	186.219345	166.951096	-62.815430	155.871353	1036.537964	-432.112793	244.689240	1031.970093	-433.683899	249.243347	1084.479126	-418.026337	328.510376	1017.307312	-422.360321	423.614807	972.453552	-410.773834	363.166321	885.952698	-425.594269	322.454620	808.189026	-427.499908	280.937592	733.376770	-417.128174	373.320892	782.494934	-403.938599	0.000000	0.000000	-0.000000	243.316833	600.864441	-322.464661	156.707031	574.313232	-362.774902	420.283722	492.537262	-369.251312	313.688873	496.923096	-436.421997	-223.705170	893.767273	-248.221420	-12.464468	85.362160	-454.347412	-20.712717	80.779449	-54.072987	
753	3.7650	515.170410	1324.210571	-113.065651	507.353149	1311.267700	-413.115112	468.767090	1394.385254	-254.522461	457.828857	1231.713745	-257.102417	583.167053	1067.991455	-5.816015	740.820618	857.005615	-56.868561	519.746399	1042.578125	-529.856445	716.950684	893.982605	-432.898804	-59.963829	1181.692139	-207.476608	89.227112	1221.481323	-397.392792	112.312187	1175.586548	-71.798973	98.305870	1163.241943	-376.426514	134.232147	1130.629150	-98.628273	-26.119423	1216.266357	-154.581055	-40.975456	1230.598389	-257.411987	52.739948	1053.769165	-46.392799	50.538490	1104.913818	-426.944244	124.956291	944.226868	-31.374485	175.455338	879.070923	-37.071217	225.706924	804.686584	-46.367702	220.782913	910.653076	-44.258312	259.843597	696.208008	-71.142349	213.909775	589.369934	-41.960907	194.404953	507.140503	-48.020023	166.272659	423.369446	-60.039280	243.026978	495.474823	-82.011467	123.924232	313.324097	-81.539513	161.213745	312.995453	-158.758255	80.554634	321.842865	-136.762238	272.472961	128.848251	-137.658066	177.099335	171.970566	-63.343414	154.410309	1035.169922	-431.813721	243.067917	1028.798340	-433.143860	248.542999	1081.454834	-418.019562	326.557556	1012.604492	-421.526764	421.830963	966.799805	-409.842438	362.445404	878.639709	-425.671082	323.031799	800.750854	-427.653381	282.476654	724.802246	-417.054962	374.070465	775.352600	-403.577820	0.000000	0.000000	-0.000000	247.450516	592.808533	-322.390167	161.335022	562.944519	-363.339844	428.201721	491.934174	-369.635803	321.395660	491.468140	-437.081665	-223.637680	893.763611	-248.235779	-12.424100	85.368835	-454.361237	-20.672791	80.774490	-54.087849	
754	3.7700	515.575684	1322.379639	-116.536507	506.957397	1312.000244	-413.813477	468.589874	1394.478516	-255.080475	457.521027	1231.658447	-258.056274	582.933655	1067.372803	-5.680730	740.796265	856.823059	-56.654678	520.472534	1042.602661	-530.327332	716.962463	894.305237	-432.816772	-59.998772	1183.181885	-207.712509	88.796478	1223.089478	-397.561951	112.019630	1176.533447	-72.156158	98.032654	1164.215210	-376.435638	133.114471	1131.790405	-99.730690	-26.538334	1217.989990	-154.436951	-40.956619	1231.953003	-257.579468	52.751244	1055.193726	-46.585331	49.540703	1105.865723	-426.463684	126.722427	945.879272	-32.977917	178.379440	881.568726	-38.962402	229.825546	808.063416	-48.661343	222.930328	913.891724	-46.258461	263.990936	699.720520	-72.849838	215.714050	593.653625	-43.578083	194.069534	512.036621	-49.595753	163.810410	428.883789	-61.418411	242.192230	499.054016	-83.907677	118.402077	320.154968	-82.295677	156.682678	318.497650	-159.768921	75.133804	329.351959	-138.052704	262.624359	131.884644	-137.500214	168.069168	177.661377	-63.787395	152.944565	1033.094116	-431.619110	241.434265	1024.935059	-432.788818	248.127258	1077.610840	-418.572418	324.509003	1007.094238	-421.121063	419.923370	959.805786	-409.062103	361.391754	870.197876	-426.148926	323.257050	791.514221	-427.387451	284.097931	714.983215	-416.967712	375.160553	766.981506	-403.331512	0.000000	0.000000	-0.000000	251.570450	583.998169	-322.281067	166.068039	550.955444	-363.793915	435.797791	490.292877	-369.863831	329.212646	484.848236	-437.552155	-223.561356	893.734436	-248.323624	-12.372477	85.387192	-454.290619	-20.647566	80.767693	-54.079025	
755	3.7750	515.864014	1322.289795	-115.723228	506.527039	1312.793457	-414.513824	468.382660	1394.522217	-255.597198	457.089874	1231.581909	-258.991241	582.688538	1066.572388	-5.446229	740.650452	856.646851	-56.458565	521.593994	1042.965210	-530.570801	716.905396	894.542480	-432.763947	-59.980225	1184.387451	-208.044571	88.662758	1224.465576	-397.812317	111.674507	1177.459839	-72.545158	98.155380	1164.913208	-376.798645	132.743423	1132.655762	-100.287903	-26.664457	1219.330688	-154.860840	-40.866940	1233.002441	-257.934296	52.838543	1056.477173	-46.818726	48.735069	1106.197021	-426.157440	128.661331	947.485718	-34.554562	181.459778	884.030396	-40.845234	234.087906	811.498047	-50.996052	225.713516	917.143372	-47.996819	268.536652	703.348755	-74.598000	217.662491	598.141663	-45.143501	193.872070	517.069153	-51.091091	161.320831	434.916656	-62.771385	241.384155	502.886841	-85.725754	112.910759	327.444550	-83.224380	151.373993	324.529236	-160.719208	69.785629	337.169037	-139.376633	253.041534	135.670715	-137.269760	159.388306	183.888992	-64.257370	151.504318	1030.533447	-431.466736	239.734268	1020.431396	-432.490265	247.514282	1073.127319	-419.157776	322.414948	1000.860168	-420.836426	417.908691	951.694519	-408.346039	360.292755	860.616821	-426.539856	323.547852	781.253967	-427.281738	285.562805	704.708557	-417.767731	375.887024	757.946594	-403.112793	0.000000	0.000000	-0.000000	255.695831	574.522339	-322.138733	170.941711	538.478638	-364.120972	443.080933	487.629639	-370.137146	336.937225	477.194733	-437.715668	-223.487091	893.679077	-248.482254	-12.314582	85.299751	-454.304077	-20.623638	80.753326	-54.068481	
